G04*
G04 #@! TF.GenerationSoftware,Altium Limited,Altium Designer,24.3.1 (35)*
G04*
G04 Layer_Color=16711935*
%FSLAX44Y44*%
%MOMM*%
G71*
G04*
G04 #@! TF.SameCoordinates,7EAC95E6-D10C-43C9-9056-5E7D675A08E9*
G04*
G04*
G04 #@! TF.FilePolarity,Negative*
G04*
G01*
G75*
%ADD13R,1.7032X1.7032*%
%ADD14C,1.7032*%
%ADD15R,1.7272X1.7272*%
%ADD16C,1.7272*%
%ADD17C,1.8542*%
%ADD18C,2.1832*%
%ADD19R,1.8532X1.8532*%
%ADD20C,1.8532*%
%ADD21C,2.1336*%
%ADD22R,1.8532X1.8532*%
D13*
X1625600Y678180D02*
D03*
Y457200D02*
D03*
D14*
Y703580D02*
D03*
Y635000D02*
D03*
Y609600D02*
D03*
Y584200D02*
D03*
Y558800D02*
D03*
Y533400D02*
D03*
Y508000D02*
D03*
Y482600D02*
D03*
D15*
X1193800Y381000D02*
D03*
D16*
Y406400D02*
D03*
Y431800D02*
D03*
Y457200D02*
D03*
Y482600D02*
D03*
Y508000D02*
D03*
Y533400D02*
D03*
Y558800D02*
D03*
Y584200D02*
D03*
Y609600D02*
D03*
Y635000D02*
D03*
Y660400D02*
D03*
Y685800D02*
D03*
Y711200D02*
D03*
Y736600D02*
D03*
X1041400D02*
D03*
Y711200D02*
D03*
Y685800D02*
D03*
Y660400D02*
D03*
Y635000D02*
D03*
Y609600D02*
D03*
Y584200D02*
D03*
Y558800D02*
D03*
Y533400D02*
D03*
Y508000D02*
D03*
Y482600D02*
D03*
Y457200D02*
D03*
Y431800D02*
D03*
Y406400D02*
D03*
Y381000D02*
D03*
D17*
X1193800Y355600D02*
D03*
X1041400D02*
D03*
Y762000D02*
D03*
X1193800D02*
D03*
D18*
X965200Y495300D02*
D03*
Y520700D02*
D03*
Y546100D02*
D03*
Y571500D02*
D03*
Y596900D02*
D03*
Y622300D02*
D03*
Y647700D02*
D03*
Y673100D02*
D03*
X812800D02*
D03*
Y647700D02*
D03*
Y622300D02*
D03*
Y596900D02*
D03*
Y571500D02*
D03*
Y546100D02*
D03*
Y520700D02*
D03*
Y495300D02*
D03*
D19*
X863600Y787400D02*
D03*
Y406400D02*
D03*
D20*
X914400Y787400D02*
D03*
Y406400D02*
D03*
X685800Y609600D02*
D03*
X683260Y459740D02*
D03*
D21*
X711200Y736600D02*
D03*
X685800D02*
D03*
X660400D02*
D03*
D22*
X685800Y558800D02*
D03*
X683260Y408940D02*
D03*
M02*
