G04*
G04 #@! TF.GenerationSoftware,Altium Limited,Altium Designer,24.3.1 (35)*
G04*
G04 Layer_Physical_Order=1*
G04 Layer_Color=255*
%FSLAX44Y44*%
%MOMM*%
G71*
G04*
G04 #@! TF.SameCoordinates,7EAC95E6-D10C-43C9-9056-5E7D675A08E9*
G04*
G04*
G04 #@! TF.FilePolarity,Positive*
G04*
G01*
G75*
%ADD12C,0.2540*%
%ADD23C,1.2700*%
%ADD24C,0.5080*%
%ADD25R,1.5000X1.5000*%
%ADD26C,1.5000*%
%ADD27R,1.5240X1.5240*%
%ADD28C,1.5240*%
%ADD29C,1.6510*%
%ADD30C,1.9800*%
%ADD31R,1.6500X1.6500*%
%ADD32C,1.6500*%
%ADD33C,1.9304*%
%ADD34R,1.6500X1.6500*%
D12*
X1195973Y598874D02*
G03*
X1195952Y598897I-7893J-7157D01*
G01*
X1326642Y495046D02*
X1493012D01*
X1193800Y635000D02*
X1195786Y633014D01*
Y625902D02*
Y633014D01*
Y625902D02*
X1326642Y495046D01*
X1312560Y481584D02*
X1504950D01*
X1623826Y607826D02*
X1625600Y609600D01*
X1623826Y600460D02*
Y607826D01*
X1504950Y481584D02*
X1623826Y600460D01*
X1493012Y495046D02*
X1623826Y625860D01*
Y633226D01*
X1625600Y635000D01*
X1623826Y506226D02*
X1625600Y508000D01*
X1623826Y498860D02*
Y506226D01*
X1256538Y445262D02*
X1570228D01*
X1623826Y498860D01*
X1193800Y457200D02*
X1222756Y428244D01*
X1596644D01*
X1625600Y457200D01*
X1240282Y436118D02*
X1579118D01*
X1193800Y482600D02*
X1240282Y436118D01*
X1579118D02*
X1625600Y482600D01*
X1193800Y508000D02*
X1256538Y445262D01*
X1193800Y533400D02*
X1271778Y455422D01*
X1547622D02*
X1625600Y533400D01*
X1271778Y455422D02*
X1547622D01*
X1193800Y558800D02*
X1287272Y465328D01*
X1532128D01*
X1625600Y558800D01*
X1193800Y584200D02*
X1196230Y581770D01*
X1299210Y473202D02*
X1518158D01*
X1621921Y577149D02*
X1625600Y580828D01*
Y584200D01*
X1196230Y576182D02*
X1299210Y473202D01*
X1196230Y576182D02*
Y581770D01*
X1621921Y576965D02*
Y577149D01*
X1518158Y473202D02*
X1621921Y576965D01*
X1190824Y606624D02*
X1193800Y609600D01*
X1195973Y598874D02*
X1197709Y596944D01*
X1190824Y604520D02*
Y606624D01*
Y604520D02*
X1195952Y598897D01*
X1202276Y591869D02*
X1312560Y481584D01*
X1197709Y596944D02*
X1202276Y591869D01*
D23*
X711200Y609600D02*
X723900Y622300D01*
X685800Y735778D02*
Y736600D01*
X711200Y609600D02*
Y710378D01*
X685800Y735778D02*
X711200Y710378D01*
X677540Y575940D02*
X711200Y609600D01*
X668660Y570732D02*
X673868Y575940D01*
X723900Y622300D02*
X812800D01*
X673868Y575940D02*
X677540D01*
X668660Y546868D02*
Y570732D01*
Y546868D02*
X673608Y541920D01*
Y469392D02*
Y541920D01*
X683260Y408940D02*
X703761D01*
X711200Y416380D02*
Y541336D01*
X703761Y408940D02*
X711200Y416380D01*
X695636Y556900D02*
X711200Y541336D01*
X687700Y556900D02*
X695636D01*
X685800Y558800D02*
X687700Y556900D01*
X673608Y469392D02*
X683260Y459740D01*
X660400Y635000D02*
Y736600D01*
Y635000D02*
X685800Y609600D01*
D24*
X812800Y520700D02*
X863600Y469900D01*
Y406400D02*
Y469900D01*
X812800Y546100D02*
X914400Y444500D01*
Y406400D02*
Y444500D01*
X812800Y571500D02*
X914400Y673100D01*
Y787400D01*
X863600Y647700D02*
Y787400D01*
X812800Y596900D02*
X863600Y647700D01*
D25*
X1625600Y678180D02*
D03*
Y457200D02*
D03*
D26*
Y703580D02*
D03*
Y635000D02*
D03*
Y609600D02*
D03*
Y584200D02*
D03*
Y558800D02*
D03*
Y533400D02*
D03*
Y508000D02*
D03*
Y482600D02*
D03*
D27*
X1193800Y381000D02*
D03*
D28*
Y406400D02*
D03*
Y431800D02*
D03*
Y457200D02*
D03*
Y482600D02*
D03*
Y508000D02*
D03*
Y533400D02*
D03*
Y558800D02*
D03*
Y584200D02*
D03*
Y609600D02*
D03*
Y635000D02*
D03*
Y660400D02*
D03*
Y685800D02*
D03*
Y711200D02*
D03*
Y736600D02*
D03*
X1041400D02*
D03*
Y711200D02*
D03*
Y685800D02*
D03*
Y660400D02*
D03*
Y635000D02*
D03*
Y609600D02*
D03*
Y584200D02*
D03*
Y558800D02*
D03*
Y533400D02*
D03*
Y508000D02*
D03*
Y482600D02*
D03*
Y457200D02*
D03*
Y431800D02*
D03*
Y406400D02*
D03*
Y381000D02*
D03*
D29*
X1193800Y355600D02*
D03*
X1041400D02*
D03*
Y762000D02*
D03*
X1193800D02*
D03*
D30*
X965200Y495300D02*
D03*
Y520700D02*
D03*
Y546100D02*
D03*
Y571500D02*
D03*
Y596900D02*
D03*
Y622300D02*
D03*
Y647700D02*
D03*
Y673100D02*
D03*
X812800D02*
D03*
Y647700D02*
D03*
Y622300D02*
D03*
Y596900D02*
D03*
Y571500D02*
D03*
Y546100D02*
D03*
Y520700D02*
D03*
Y495300D02*
D03*
D31*
X863600Y787400D02*
D03*
Y406400D02*
D03*
D32*
X914400Y787400D02*
D03*
Y406400D02*
D03*
X685800Y609600D02*
D03*
X683260Y459740D02*
D03*
D33*
X711200Y736600D02*
D03*
X685800D02*
D03*
X660400D02*
D03*
D34*
X685800Y558800D02*
D03*
X683260Y408940D02*
D03*
M02*
