G04*
G04 #@! TF.GenerationSoftware,Altium Limited,Altium Designer,24.3.1 (35)*
G04*
G04 Layer_Physical_Order=2*
G04 Layer_Color=16711680*
%FSLAX44Y44*%
%MOMM*%
G71*
G04*
G04 #@! TF.SameCoordinates,7EAC95E6-D10C-43C9-9056-5E7D675A08E9*
G04*
G04*
G04 #@! TF.FilePolarity,Positive*
G04*
G01*
G75*
%ADD23C,1.2700*%
%ADD24C,0.5080*%
%ADD25R,1.5000X1.5000*%
%ADD26C,1.5000*%
%ADD27R,1.5240X1.5240*%
%ADD28C,1.5240*%
%ADD29C,1.6510*%
%ADD30C,1.9800*%
%ADD31R,1.6500X1.6500*%
%ADD32C,1.6500*%
%ADD33C,1.9304*%
%ADD34R,1.6500X1.6500*%
G36*
X1291590Y732790D02*
X1651000D01*
X1701800Y681990D01*
Y469900D01*
X1651000Y419100D01*
X1295400D01*
X1155700Y279400D01*
X673100D01*
X558800Y393700D01*
Y749300D01*
X698500Y889000D01*
X1135380D01*
X1291590Y732790D01*
D02*
G37*
%LPC*%
G36*
X915820Y798190D02*
X912980D01*
X910235Y797455D01*
X907775Y796034D01*
X905766Y794025D01*
X904345Y791565D01*
X903610Y788820D01*
Y785980D01*
X904345Y783235D01*
X905766Y780775D01*
X907775Y778766D01*
X910235Y777345D01*
X912980Y776610D01*
X915820D01*
X918565Y777345D01*
X921025Y778766D01*
X923034Y780775D01*
X924455Y783235D01*
X925190Y785980D01*
Y788820D01*
X924455Y791565D01*
X923034Y794025D01*
X921025Y796034D01*
X918565Y797455D01*
X915820Y798190D01*
D02*
G37*
G36*
X874390D02*
X852810D01*
Y776610D01*
X874390D01*
Y798190D01*
D02*
G37*
G36*
X1195221Y772795D02*
X1192379D01*
X1189633Y772059D01*
X1187172Y770638D01*
X1185162Y768628D01*
X1183741Y766167D01*
X1183005Y763421D01*
Y760579D01*
X1183741Y757833D01*
X1185162Y755372D01*
X1187172Y753362D01*
X1189633Y751941D01*
X1192379Y751205D01*
X1195221D01*
X1197967Y751941D01*
X1200428Y753362D01*
X1202438Y755372D01*
X1203859Y757833D01*
X1204595Y760579D01*
Y763421D01*
X1203859Y766167D01*
X1202438Y768628D01*
X1200428Y770638D01*
X1197967Y772059D01*
X1195221Y772795D01*
D02*
G37*
G36*
X684530Y748792D02*
X684195D01*
X681094Y747961D01*
X678314Y746356D01*
X676044Y744086D01*
X674439Y741306D01*
X673757Y738763D01*
X672443D01*
X671761Y741306D01*
X670156Y744086D01*
X667886Y746356D01*
X665106Y747961D01*
X662005Y748792D01*
X658795D01*
X655694Y747961D01*
X652914Y746356D01*
X650644Y744086D01*
X649039Y741306D01*
X648208Y738205D01*
Y734995D01*
X649039Y731894D01*
X650644Y729114D01*
X652914Y726844D01*
X655694Y725239D01*
X658795Y724408D01*
X662005D01*
X665106Y725239D01*
X667886Y726844D01*
X670156Y729114D01*
X671761Y731894D01*
X672443Y734437D01*
X673757D01*
X674439Y731894D01*
X676044Y729114D01*
X678314Y726844D01*
X681094Y725239D01*
X684195Y724408D01*
X684530D01*
Y736600D01*
Y748792D01*
D02*
G37*
G36*
X1042738Y746760D02*
X1040062D01*
X1037478Y746068D01*
X1035162Y744730D01*
X1033270Y742838D01*
X1031932Y740522D01*
X1031240Y737938D01*
Y735262D01*
X1031932Y732678D01*
X1033270Y730362D01*
X1035162Y728470D01*
X1037478Y727132D01*
X1040062Y726440D01*
X1042738D01*
X1045322Y727132D01*
X1047638Y728470D01*
X1049530Y730362D01*
X1050868Y732678D01*
X1051560Y735262D01*
Y737938D01*
X1050868Y740522D01*
X1049530Y742838D01*
X1047638Y744730D01*
X1045322Y746068D01*
X1042738Y746760D01*
D02*
G37*
G36*
X1195138Y721360D02*
X1195070D01*
Y712470D01*
X1203960D01*
Y712538D01*
X1203268Y715122D01*
X1201930Y717438D01*
X1200038Y719330D01*
X1197722Y720668D01*
X1195138Y721360D01*
D02*
G37*
G36*
X1192530D02*
X1192462D01*
X1189878Y720668D01*
X1187562Y719330D01*
X1185670Y717438D01*
X1184332Y715122D01*
X1183640Y712538D01*
Y712470D01*
X1192530D01*
Y721360D01*
D02*
G37*
G36*
X1203960Y709930D02*
X1195070D01*
Y701040D01*
X1195138D01*
X1197722Y701732D01*
X1200038Y703070D01*
X1201930Y704962D01*
X1203268Y707278D01*
X1203960Y709862D01*
Y709930D01*
D02*
G37*
G36*
X1192530D02*
X1183640D01*
Y709862D01*
X1184332Y707278D01*
X1185670Y704962D01*
X1187562Y703070D01*
X1189878Y701732D01*
X1192462Y701040D01*
X1192530D01*
Y709930D01*
D02*
G37*
G36*
X1042738Y721360D02*
X1040062D01*
X1037478Y720668D01*
X1035162Y719330D01*
X1033270Y717438D01*
X1031932Y715122D01*
X1031240Y712538D01*
Y709862D01*
X1031932Y707278D01*
X1033270Y704962D01*
X1035162Y703070D01*
X1037478Y701732D01*
X1040062Y701040D01*
X1042738D01*
X1045322Y701732D01*
X1047638Y703070D01*
X1049530Y704962D01*
X1050868Y707278D01*
X1051560Y709862D01*
Y712538D01*
X1050868Y715122D01*
X1049530Y717438D01*
X1047638Y719330D01*
X1045322Y720668D01*
X1042738Y721360D01*
D02*
G37*
G36*
X1055370Y781150D02*
X1017270D01*
X1015288Y780755D01*
X1013607Y779632D01*
X990995Y757020D01*
X916940D01*
X914958Y756625D01*
X913278Y755502D01*
X844553Y686778D01*
X843380Y687264D01*
Y703580D01*
X843380Y703580D01*
X842985Y705562D01*
X841862Y707243D01*
X808842Y740263D01*
X807162Y741385D01*
X805180Y741779D01*
X722288D01*
X720956Y744086D01*
X718686Y746356D01*
X715906Y747961D01*
X712805Y748792D01*
X709595D01*
X706494Y747961D01*
X703714Y746356D01*
X701444Y744086D01*
X699839Y741306D01*
X699157Y738763D01*
X697843D01*
X697161Y741306D01*
X695556Y744086D01*
X693286Y746356D01*
X690506Y747961D01*
X687405Y748792D01*
X687070D01*
Y736600D01*
Y724408D01*
X687405D01*
X690506Y725239D01*
X693286Y726844D01*
X695556Y729114D01*
X697161Y731894D01*
X697843Y734437D01*
X699157D01*
X699839Y731894D01*
X701444Y729114D01*
X703714Y726844D01*
X706494Y725239D01*
X709595Y724408D01*
X712805D01*
X715906Y725239D01*
X718686Y726844D01*
X720956Y729114D01*
X722288Y731421D01*
X803035D01*
X833020Y701435D01*
Y675245D01*
X825880Y668105D01*
X825666Y668146D01*
X824745Y669616D01*
X825240Y671462D01*
Y674738D01*
X824392Y677902D01*
X822755Y680738D01*
X820438Y683055D01*
X817602Y684692D01*
X814438Y685540D01*
X811162D01*
X807998Y684692D01*
X805162Y683055D01*
X804174Y682067D01*
X749300D01*
X746979Y681761D01*
X744817Y680865D01*
X742960Y679440D01*
X683737Y620218D01*
X681635Y619655D01*
X679175Y618234D01*
X677166Y616225D01*
X675745Y613765D01*
X675010Y611021D01*
Y608180D01*
X675745Y605435D01*
X677166Y602975D01*
X679175Y600966D01*
X681635Y599545D01*
X684380Y598810D01*
X687221D01*
X689965Y599545D01*
X692425Y600966D01*
X694434Y602975D01*
X695855Y605435D01*
X696418Y607537D01*
X753014Y664133D01*
X804174D01*
X805162Y663146D01*
X807998Y661508D01*
X809679Y661057D01*
Y659743D01*
X807998Y659292D01*
X805162Y657654D01*
X802846Y655338D01*
X801208Y652502D01*
X800360Y649338D01*
Y646062D01*
X801208Y642898D01*
X802846Y640062D01*
X805162Y637746D01*
X807998Y636108D01*
X809679Y635657D01*
Y634343D01*
X807998Y633892D01*
X805162Y632254D01*
X802846Y629938D01*
X801208Y627102D01*
X800360Y623938D01*
Y623570D01*
X812800D01*
X825240D01*
Y623938D01*
X824392Y627102D01*
X822755Y629938D01*
X820438Y632254D01*
X817602Y633892D01*
X815921Y634343D01*
Y635657D01*
X817602Y636108D01*
X820438Y637746D01*
X822755Y640062D01*
X824392Y642898D01*
X825240Y646062D01*
Y649338D01*
X824505Y652080D01*
X841862Y669437D01*
X841862Y669437D01*
X919085Y746661D01*
X993140D01*
X995122Y747055D01*
X996803Y748177D01*
X1019415Y770790D01*
X1033128D01*
X1033654Y769520D01*
X1032762Y768628D01*
X1031341Y766167D01*
X1030605Y763421D01*
Y760579D01*
X1031341Y757833D01*
X1032762Y755372D01*
X1034772Y753362D01*
X1037233Y751941D01*
X1039979Y751205D01*
X1042821D01*
X1045567Y751941D01*
X1048028Y753362D01*
X1050038Y755372D01*
X1051459Y757833D01*
X1052195Y760579D01*
Y763421D01*
X1051459Y766167D01*
X1050038Y768628D01*
X1049146Y769520D01*
X1049672Y770790D01*
X1053225D01*
X1075837Y748177D01*
X1077518Y747055D01*
X1079500Y746661D01*
X1176415D01*
X1183957Y739119D01*
X1183640Y737938D01*
Y735262D01*
X1184332Y732678D01*
X1185670Y730362D01*
X1187562Y728470D01*
X1189878Y727132D01*
X1192462Y726440D01*
X1195138D01*
X1197722Y727132D01*
X1200038Y728470D01*
X1201930Y730362D01*
X1202541Y731421D01*
X1255155D01*
X1273449Y713126D01*
X1275130Y712003D01*
X1277112Y711609D01*
X1277112Y711609D01*
X1610247D01*
X1615854Y706001D01*
X1615560Y704902D01*
Y702258D01*
X1616244Y699705D01*
X1617566Y697415D01*
X1619435Y695546D01*
X1621725Y694224D01*
X1624278Y693540D01*
X1626922D01*
X1629475Y694224D01*
X1631765Y695546D01*
X1633634Y697415D01*
X1634956Y699705D01*
X1635640Y702258D01*
Y704902D01*
X1634956Y707455D01*
X1633634Y709745D01*
X1631765Y711614D01*
X1629475Y712936D01*
X1626922Y713620D01*
X1624278D01*
X1623179Y713326D01*
X1616055Y720451D01*
X1614374Y721573D01*
X1612392Y721967D01*
X1279257D01*
X1260963Y740263D01*
X1259282Y741385D01*
X1257300Y741779D01*
X1202541D01*
X1201930Y742838D01*
X1200038Y744730D01*
X1197722Y746068D01*
X1195138Y746760D01*
X1192462D01*
X1191281Y746443D01*
X1182223Y755502D01*
X1180542Y756625D01*
X1178560Y757020D01*
X1081645D01*
X1059033Y779632D01*
X1057352Y780755D01*
X1055370Y781150D01*
D02*
G37*
G36*
X1635640Y688220D02*
X1626870D01*
Y679450D01*
X1635640D01*
Y688220D01*
D02*
G37*
G36*
X1624330D02*
X1615560D01*
Y679450D01*
X1624330D01*
Y688220D01*
D02*
G37*
G36*
X1195138Y695960D02*
X1192462D01*
X1189878Y695268D01*
X1187562Y693930D01*
X1185670Y692038D01*
X1184332Y689722D01*
X1183640Y687138D01*
Y684462D01*
X1184332Y681878D01*
X1185670Y679562D01*
X1187562Y677670D01*
X1189878Y676332D01*
X1192462Y675640D01*
X1195138D01*
X1197722Y676332D01*
X1200038Y677670D01*
X1201930Y679562D01*
X1203268Y681878D01*
X1203960Y684462D01*
Y687138D01*
X1203268Y689722D01*
X1201930Y692038D01*
X1200038Y693930D01*
X1197722Y695268D01*
X1195138Y695960D01*
D02*
G37*
G36*
X1042738D02*
X1040062D01*
X1037478Y695268D01*
X1035162Y693930D01*
X1033270Y692038D01*
X1031932Y689722D01*
X1031240Y687138D01*
Y684462D01*
X1031932Y681878D01*
X1033270Y679562D01*
X1035162Y677670D01*
X1037478Y676332D01*
X1040062Y675640D01*
X1042738D01*
X1045322Y676332D01*
X1047638Y677670D01*
X1049530Y679562D01*
X1050868Y681878D01*
X1051560Y684462D01*
Y687138D01*
X1050868Y689722D01*
X1049530Y692038D01*
X1047638Y693930D01*
X1045322Y695268D01*
X1042738Y695960D01*
D02*
G37*
G36*
X1635640Y676910D02*
X1626870D01*
Y668140D01*
X1635640D01*
Y676910D01*
D02*
G37*
G36*
X1624330D02*
X1615560D01*
Y668140D01*
X1624330D01*
Y676910D01*
D02*
G37*
G36*
X1195138Y670560D02*
X1192462D01*
X1189878Y669868D01*
X1187562Y668530D01*
X1185670Y666638D01*
X1184332Y664322D01*
X1183640Y661738D01*
Y659062D01*
X1184332Y656478D01*
X1185670Y654162D01*
X1187562Y652270D01*
X1189878Y650932D01*
X1192462Y650240D01*
X1195138D01*
X1197722Y650932D01*
X1200038Y652270D01*
X1201930Y654162D01*
X1203268Y656478D01*
X1203960Y659062D01*
Y661738D01*
X1203268Y664322D01*
X1201930Y666638D01*
X1200038Y668530D01*
X1197722Y669868D01*
X1195138Y670560D01*
D02*
G37*
G36*
X1042738D02*
X1040062D01*
X1037478Y669868D01*
X1035162Y668530D01*
X1033270Y666638D01*
X1031932Y664322D01*
X1031240Y661738D01*
Y659062D01*
X1031932Y656478D01*
X1033270Y654162D01*
X1035162Y652270D01*
X1037478Y650932D01*
X1040062Y650240D01*
X1042738D01*
X1045322Y650932D01*
X1047638Y652270D01*
X1049530Y654162D01*
X1050868Y656478D01*
X1051560Y659062D01*
Y661738D01*
X1050868Y664322D01*
X1049530Y666638D01*
X1047638Y668530D01*
X1045322Y669868D01*
X1042738Y670560D01*
D02*
G37*
G36*
X1626922Y645040D02*
X1624278D01*
X1621725Y644356D01*
X1619435Y643034D01*
X1617566Y641165D01*
X1616244Y638875D01*
X1615560Y636322D01*
Y633678D01*
X1616244Y631125D01*
X1617566Y628835D01*
X1619435Y626966D01*
X1621725Y625644D01*
X1624278Y624960D01*
X1626922D01*
X1629475Y625644D01*
X1631765Y626966D01*
X1633634Y628835D01*
X1634956Y631125D01*
X1635640Y633678D01*
Y636322D01*
X1634956Y638875D01*
X1633634Y641165D01*
X1631765Y643034D01*
X1629475Y644356D01*
X1626922Y645040D01*
D02*
G37*
G36*
X1195138Y645160D02*
X1192462D01*
X1189878Y644468D01*
X1187562Y643130D01*
X1185670Y641238D01*
X1184332Y638922D01*
X1183640Y636338D01*
Y633662D01*
X1184332Y631078D01*
X1185670Y628762D01*
X1187562Y626870D01*
X1189878Y625532D01*
X1192462Y624840D01*
X1195138D01*
X1197722Y625532D01*
X1200038Y626870D01*
X1201930Y628762D01*
X1203268Y631078D01*
X1203960Y633662D01*
Y636338D01*
X1203268Y638922D01*
X1201930Y641238D01*
X1200038Y643130D01*
X1197722Y644468D01*
X1195138Y645160D01*
D02*
G37*
G36*
X1042738D02*
X1040062D01*
X1037478Y644468D01*
X1035162Y643130D01*
X1033270Y641238D01*
X1031932Y638922D01*
X1031240Y636338D01*
Y633662D01*
X1031932Y631078D01*
X1033270Y628762D01*
X1035162Y626870D01*
X1037478Y625532D01*
X1040062Y624840D01*
X1042738D01*
X1045322Y625532D01*
X1047638Y626870D01*
X1049530Y628762D01*
X1050868Y631078D01*
X1051560Y633662D01*
Y636338D01*
X1050868Y638922D01*
X1049530Y641238D01*
X1047638Y643130D01*
X1045322Y644468D01*
X1042738Y645160D01*
D02*
G37*
G36*
X1626922Y619640D02*
X1624278D01*
X1621725Y618956D01*
X1619435Y617634D01*
X1617566Y615765D01*
X1616244Y613475D01*
X1615560Y610922D01*
Y608278D01*
X1616244Y605725D01*
X1617566Y603435D01*
X1619435Y601566D01*
X1621725Y600244D01*
X1624278Y599560D01*
X1626922D01*
X1629475Y600244D01*
X1631765Y601566D01*
X1633634Y603435D01*
X1634956Y605725D01*
X1635640Y608278D01*
Y610922D01*
X1634956Y613475D01*
X1633634Y615765D01*
X1631765Y617634D01*
X1629475Y618956D01*
X1626922Y619640D01*
D02*
G37*
G36*
X1195138Y619760D02*
X1192462D01*
X1189878Y619068D01*
X1187562Y617730D01*
X1185670Y615838D01*
X1184332Y613522D01*
X1183640Y610938D01*
Y608262D01*
X1184332Y605678D01*
X1185670Y603362D01*
X1187562Y601470D01*
X1189878Y600132D01*
X1192462Y599440D01*
X1195138D01*
X1197722Y600132D01*
X1200038Y601470D01*
X1201930Y603362D01*
X1203268Y605678D01*
X1203960Y608262D01*
Y610938D01*
X1203268Y613522D01*
X1201930Y615838D01*
X1200038Y617730D01*
X1197722Y619068D01*
X1195138Y619760D01*
D02*
G37*
G36*
X966838Y685540D02*
X963562D01*
X960398Y684692D01*
X957562Y683055D01*
X955246Y680738D01*
X953608Y677902D01*
X952760Y674738D01*
Y671462D01*
X953608Y668298D01*
X955246Y665462D01*
X957562Y663146D01*
X960398Y661508D01*
X962079Y661057D01*
Y659743D01*
X960398Y659292D01*
X957562Y657654D01*
X955246Y655338D01*
X953608Y652502D01*
X952760Y649338D01*
Y646062D01*
X953608Y642898D01*
X955246Y640062D01*
X957562Y637746D01*
X960398Y636108D01*
X962079Y635657D01*
Y634343D01*
X960398Y633892D01*
X957562Y632254D01*
X955246Y629938D01*
X953608Y627102D01*
X952760Y623938D01*
Y620662D01*
X953608Y617498D01*
X955246Y614662D01*
X957562Y612346D01*
X960398Y610708D01*
X962079Y610257D01*
Y608943D01*
X960398Y608492D01*
X957562Y606855D01*
X955246Y604538D01*
X953608Y601702D01*
X952760Y598538D01*
Y595262D01*
X953608Y592098D01*
X955246Y589262D01*
X957562Y586945D01*
X960398Y585308D01*
X962079Y584857D01*
Y583543D01*
X960398Y583092D01*
X957562Y581455D01*
X955246Y579138D01*
X953608Y576302D01*
X952760Y573138D01*
Y569862D01*
X953608Y566698D01*
X955246Y563862D01*
X957562Y561545D01*
X960398Y559908D01*
X962079Y559457D01*
Y558143D01*
X960398Y557692D01*
X957562Y556054D01*
X955246Y553738D01*
X953608Y550902D01*
X952760Y547738D01*
Y544462D01*
X953608Y541298D01*
X955246Y538462D01*
X957562Y536146D01*
X960398Y534508D01*
X962079Y534057D01*
Y532743D01*
X960398Y532292D01*
X957562Y530654D01*
X955246Y528338D01*
X953608Y525502D01*
X952760Y522338D01*
Y519062D01*
X953608Y515898D01*
X955246Y513062D01*
X957562Y510746D01*
X960398Y509108D01*
X962079Y508657D01*
Y507343D01*
X960398Y506892D01*
X957562Y505255D01*
X955246Y502938D01*
X953608Y500102D01*
X952760Y496938D01*
Y493662D01*
X953608Y490498D01*
X955246Y487662D01*
X957562Y485345D01*
X960398Y483708D01*
X963562Y482860D01*
X966838D01*
X970002Y483708D01*
X972838Y485345D01*
X975154Y487662D01*
X976792Y490498D01*
X977640Y493662D01*
Y496938D01*
X977145Y498783D01*
X978066Y500254D01*
X978280Y500295D01*
X1025691Y452884D01*
X1027372Y451761D01*
X1029354Y451367D01*
X1033036D01*
X1033270Y450962D01*
X1035162Y449070D01*
X1037478Y447732D01*
X1040062Y447040D01*
X1042738D01*
X1045322Y447732D01*
X1047638Y449070D01*
X1049530Y450962D01*
X1050868Y453278D01*
X1051560Y455862D01*
Y458538D01*
X1050868Y461122D01*
X1049530Y463438D01*
X1047638Y465330D01*
X1045322Y466668D01*
X1042738Y467360D01*
X1040062D01*
X1037478Y466668D01*
X1035162Y465330D01*
X1033270Y463438D01*
X1032565Y462218D01*
X1031144Y462080D01*
X976905Y516320D01*
X977640Y519062D01*
Y522338D01*
X976792Y525502D01*
X975154Y528338D01*
X972838Y530654D01*
X970002Y532292D01*
X968321Y532743D01*
Y534057D01*
X970002Y534508D01*
X972838Y536146D01*
X973509Y536816D01*
X1029444Y480882D01*
X1031124Y479759D01*
X1031672Y479650D01*
X1031932Y478678D01*
X1033270Y476362D01*
X1035162Y474470D01*
X1037478Y473132D01*
X1040062Y472440D01*
X1042738D01*
X1045322Y473132D01*
X1047638Y474470D01*
X1049530Y476362D01*
X1050868Y478678D01*
X1051560Y481262D01*
Y483938D01*
X1050868Y486522D01*
X1049530Y488838D01*
X1047638Y490730D01*
X1045322Y492068D01*
X1042738Y492760D01*
X1040062D01*
X1037478Y492068D01*
X1035162Y490730D01*
X1034703Y490272D01*
X978029Y546946D01*
X977640Y547206D01*
Y547738D01*
X976792Y550902D01*
X975154Y553738D01*
X972838Y556054D01*
X970002Y557692D01*
X968321Y558143D01*
Y559457D01*
X970002Y559908D01*
X972838Y561545D01*
X973382Y562089D01*
X1029190Y506282D01*
X1030870Y505159D01*
X1031686Y504996D01*
X1031932Y504078D01*
X1033270Y501762D01*
X1035162Y499870D01*
X1037478Y498532D01*
X1040062Y497840D01*
X1042738D01*
X1045322Y498532D01*
X1047638Y499870D01*
X1049530Y501762D01*
X1050868Y504078D01*
X1051560Y506662D01*
Y509338D01*
X1050868Y511922D01*
X1049530Y514238D01*
X1047638Y516130D01*
X1045322Y517468D01*
X1042738Y518160D01*
X1040062D01*
X1037478Y517468D01*
X1035162Y516130D01*
X1034576Y515545D01*
X977775Y572346D01*
X977640Y572436D01*
Y573138D01*
X976792Y576302D01*
X975154Y579138D01*
X972838Y581455D01*
X970002Y583092D01*
X968321Y583543D01*
Y584857D01*
X970002Y585308D01*
X972838Y586945D01*
X975154Y589262D01*
X976792Y592098D01*
X977640Y595262D01*
Y596661D01*
X978813Y597147D01*
X1023616Y552343D01*
X1025297Y551221D01*
X1027279Y550826D01*
X1035005D01*
X1035162Y550670D01*
X1037478Y549332D01*
X1040062Y548640D01*
X1042738D01*
X1045322Y549332D01*
X1047638Y550670D01*
X1049530Y552562D01*
X1050868Y554878D01*
X1051560Y557462D01*
Y560138D01*
X1050868Y562722D01*
X1049530Y565038D01*
X1047638Y566930D01*
X1045322Y568268D01*
X1042738Y568960D01*
X1040062D01*
X1037478Y568268D01*
X1035162Y566930D01*
X1033270Y565038D01*
X1031932Y562722D01*
X1031521Y561185D01*
X1029424D01*
X975445Y615165D01*
X976792Y617498D01*
X977640Y620662D01*
Y622061D01*
X978813Y622547D01*
X1023616Y577743D01*
X1025297Y576621D01*
X1027279Y576227D01*
X1035005D01*
X1035162Y576070D01*
X1037478Y574732D01*
X1040062Y574040D01*
X1042738D01*
X1045322Y574732D01*
X1047638Y576070D01*
X1049530Y577962D01*
X1050868Y580278D01*
X1051560Y582862D01*
Y585538D01*
X1050868Y588122D01*
X1049530Y590438D01*
X1047638Y592330D01*
X1045322Y593668D01*
X1042738Y594360D01*
X1040062D01*
X1037478Y593668D01*
X1035162Y592330D01*
X1033270Y590438D01*
X1031932Y588122D01*
X1031521Y586586D01*
X1029424D01*
X975445Y640565D01*
X976792Y642898D01*
X977640Y646062D01*
Y647461D01*
X978813Y647947D01*
X1015234Y611525D01*
X1015235Y611525D01*
X1018885Y607875D01*
X1020565Y606753D01*
X1022547Y606358D01*
X1031750D01*
X1031932Y605678D01*
X1033270Y603362D01*
X1035162Y601470D01*
X1037478Y600132D01*
X1040062Y599440D01*
X1042738D01*
X1045322Y600132D01*
X1047638Y601470D01*
X1049530Y603362D01*
X1050868Y605678D01*
X1051560Y608262D01*
Y610938D01*
X1050868Y613522D01*
X1049530Y615838D01*
X1047638Y617730D01*
X1045322Y619068D01*
X1042738Y619760D01*
X1040062D01*
X1037478Y619068D01*
X1035162Y617730D01*
X1034149Y616717D01*
X1024693D01*
X1022559Y618851D01*
X1022559Y618851D01*
X975445Y665965D01*
X976792Y668298D01*
X977640Y671462D01*
Y674738D01*
X976792Y677902D01*
X975154Y680738D01*
X972838Y683055D01*
X970002Y684692D01*
X966838Y685540D01*
D02*
G37*
G36*
X1626922Y594240D02*
X1624278D01*
X1621725Y593556D01*
X1619435Y592234D01*
X1617566Y590365D01*
X1616244Y588075D01*
X1615560Y585522D01*
Y582878D01*
X1616244Y580325D01*
X1617566Y578035D01*
X1619435Y576166D01*
X1621725Y574844D01*
X1624278Y574160D01*
X1626922D01*
X1629475Y574844D01*
X1631765Y576166D01*
X1633634Y578035D01*
X1634956Y580325D01*
X1635640Y582878D01*
Y585522D01*
X1634956Y588075D01*
X1633634Y590365D01*
X1631765Y592234D01*
X1629475Y593556D01*
X1626922Y594240D01*
D02*
G37*
G36*
X1195138Y594360D02*
X1192462D01*
X1189878Y593668D01*
X1187562Y592330D01*
X1185670Y590438D01*
X1184332Y588122D01*
X1183640Y585538D01*
Y582862D01*
X1184332Y580278D01*
X1185670Y577962D01*
X1187562Y576070D01*
X1189878Y574732D01*
X1192462Y574040D01*
X1195138D01*
X1197722Y574732D01*
X1200038Y576070D01*
X1201930Y577962D01*
X1203268Y580278D01*
X1203960Y582862D01*
Y585538D01*
X1203268Y588122D01*
X1201930Y590438D01*
X1200038Y592330D01*
X1197722Y593668D01*
X1195138Y594360D01*
D02*
G37*
G36*
X1626922Y568840D02*
X1624278D01*
X1621725Y568156D01*
X1619435Y566834D01*
X1617566Y564965D01*
X1616244Y562675D01*
X1615560Y560122D01*
Y557478D01*
X1616244Y554925D01*
X1617566Y552635D01*
X1619435Y550766D01*
X1621725Y549444D01*
X1624278Y548760D01*
X1626922D01*
X1629475Y549444D01*
X1631765Y550766D01*
X1633634Y552635D01*
X1634956Y554925D01*
X1635640Y557478D01*
Y560122D01*
X1634956Y562675D01*
X1633634Y564965D01*
X1631765Y566834D01*
X1629475Y568156D01*
X1626922Y568840D01*
D02*
G37*
G36*
X1195138Y568960D02*
X1192462D01*
X1189878Y568268D01*
X1187562Y566930D01*
X1185670Y565038D01*
X1184332Y562722D01*
X1183640Y560138D01*
Y557462D01*
X1184332Y554878D01*
X1185670Y552562D01*
X1187562Y550670D01*
X1189878Y549332D01*
X1192462Y548640D01*
X1195138D01*
X1197722Y549332D01*
X1200038Y550670D01*
X1201930Y552562D01*
X1203268Y554878D01*
X1203960Y557462D01*
Y560138D01*
X1203268Y562722D01*
X1201930Y565038D01*
X1200038Y566930D01*
X1197722Y568268D01*
X1195138Y568960D01*
D02*
G37*
G36*
X696590Y569590D02*
X675010D01*
Y548010D01*
X696590D01*
Y569590D01*
D02*
G37*
G36*
X1626922Y543440D02*
X1624278D01*
X1621725Y542756D01*
X1619435Y541434D01*
X1617566Y539565D01*
X1616244Y537275D01*
X1615560Y534722D01*
Y532078D01*
X1616244Y529525D01*
X1617566Y527235D01*
X1619435Y525366D01*
X1621725Y524044D01*
X1624278Y523360D01*
X1626922D01*
X1629475Y524044D01*
X1631765Y525366D01*
X1633634Y527235D01*
X1634956Y529525D01*
X1635640Y532078D01*
Y534722D01*
X1634956Y537275D01*
X1633634Y539565D01*
X1631765Y541434D01*
X1629475Y542756D01*
X1626922Y543440D01*
D02*
G37*
G36*
X1195138Y543560D02*
X1192462D01*
X1189878Y542868D01*
X1187562Y541530D01*
X1185670Y539638D01*
X1184332Y537322D01*
X1183640Y534738D01*
Y532062D01*
X1184332Y529478D01*
X1185670Y527162D01*
X1187562Y525270D01*
X1189878Y523932D01*
X1192462Y523240D01*
X1195138D01*
X1197722Y523932D01*
X1200038Y525270D01*
X1201930Y527162D01*
X1203268Y529478D01*
X1203960Y532062D01*
Y534738D01*
X1203268Y537322D01*
X1201930Y539638D01*
X1200038Y541530D01*
X1197722Y542868D01*
X1195138Y543560D01*
D02*
G37*
G36*
X1042738D02*
X1040062D01*
X1037478Y542868D01*
X1035162Y541530D01*
X1033270Y539638D01*
X1031932Y537322D01*
X1031240Y534738D01*
Y532062D01*
X1031932Y529478D01*
X1033270Y527162D01*
X1035162Y525270D01*
X1037478Y523932D01*
X1040062Y523240D01*
X1042738D01*
X1045322Y523932D01*
X1047638Y525270D01*
X1049530Y527162D01*
X1050868Y529478D01*
X1051560Y532062D01*
Y534738D01*
X1050868Y537322D01*
X1049530Y539638D01*
X1047638Y541530D01*
X1045322Y542868D01*
X1042738Y543560D01*
D02*
G37*
G36*
X1626922Y518040D02*
X1624278D01*
X1621725Y517356D01*
X1619435Y516034D01*
X1617566Y514165D01*
X1616244Y511875D01*
X1615560Y509322D01*
Y506678D01*
X1616244Y504125D01*
X1617566Y501835D01*
X1619435Y499966D01*
X1621725Y498644D01*
X1624278Y497960D01*
X1626922D01*
X1629475Y498644D01*
X1631765Y499966D01*
X1633634Y501835D01*
X1634956Y504125D01*
X1635640Y506678D01*
Y509322D01*
X1634956Y511875D01*
X1633634Y514165D01*
X1631765Y516034D01*
X1629475Y517356D01*
X1626922Y518040D01*
D02*
G37*
G36*
X1195138Y518160D02*
X1192462D01*
X1189878Y517468D01*
X1187562Y516130D01*
X1185670Y514238D01*
X1184332Y511922D01*
X1183640Y509338D01*
Y506662D01*
X1184332Y504078D01*
X1185670Y501762D01*
X1187562Y499870D01*
X1189878Y498532D01*
X1192462Y497840D01*
X1195138D01*
X1197722Y498532D01*
X1200038Y499870D01*
X1201930Y501762D01*
X1203268Y504078D01*
X1203960Y506662D01*
Y509338D01*
X1203268Y511922D01*
X1201930Y514238D01*
X1200038Y516130D01*
X1197722Y517468D01*
X1195138Y518160D01*
D02*
G37*
G36*
X825240Y621030D02*
X812800D01*
X800360D01*
Y620662D01*
X801208Y617498D01*
X802846Y614662D01*
X805162Y612346D01*
X807998Y610708D01*
X809679Y610257D01*
Y608943D01*
X807998Y608492D01*
X805162Y606855D01*
X802846Y604538D01*
X801208Y601702D01*
X800360Y598538D01*
Y595262D01*
X801208Y592098D01*
X802846Y589262D01*
X805162Y586945D01*
X807998Y585308D01*
X809679Y584857D01*
Y583543D01*
X807998Y583092D01*
X805162Y581455D01*
X802846Y579138D01*
X801208Y576302D01*
X800360Y573138D01*
Y569862D01*
X801208Y566698D01*
X802846Y563862D01*
X805162Y561545D01*
X807998Y559908D01*
X809679Y559457D01*
Y558143D01*
X807998Y557692D01*
X805162Y556054D01*
X802846Y553738D01*
X801208Y550902D01*
X800360Y547738D01*
Y544462D01*
X801208Y541298D01*
X802846Y538462D01*
X805162Y536146D01*
X807998Y534508D01*
X809679Y534057D01*
Y532743D01*
X807998Y532292D01*
X805162Y530654D01*
X802846Y528338D01*
X801208Y525502D01*
X800360Y522338D01*
Y519062D01*
X801208Y515898D01*
X802846Y513062D01*
X805162Y510746D01*
X807998Y509108D01*
X809679Y508657D01*
Y507343D01*
X807998Y506892D01*
X805162Y505255D01*
X802846Y502938D01*
X801208Y500102D01*
X800360Y496938D01*
Y493662D01*
X801208Y490498D01*
X802846Y487662D01*
X805162Y485345D01*
X807998Y483708D01*
X811162Y482860D01*
X814438D01*
X817602Y483708D01*
X820438Y485345D01*
X822755Y487662D01*
X824392Y490498D01*
X825240Y493662D01*
Y496938D01*
X824392Y500102D01*
X822755Y502938D01*
X820438Y505255D01*
X817602Y506892D01*
X815921Y507343D01*
Y508657D01*
X817602Y509108D01*
X820438Y510746D01*
X822755Y513062D01*
X824392Y515898D01*
X825240Y519062D01*
Y522338D01*
X824392Y525502D01*
X822755Y528338D01*
X820438Y530654D01*
X817602Y532292D01*
X815921Y532743D01*
Y534057D01*
X817602Y534508D01*
X820438Y536146D01*
X822755Y538462D01*
X824392Y541298D01*
X825240Y544462D01*
Y547738D01*
X824392Y550902D01*
X822755Y553738D01*
X820438Y556054D01*
X817602Y557692D01*
X815921Y558143D01*
Y559457D01*
X817602Y559908D01*
X820438Y561545D01*
X822755Y563862D01*
X824392Y566698D01*
X825240Y569862D01*
Y573138D01*
X824392Y576302D01*
X822755Y579138D01*
X820438Y581455D01*
X817602Y583092D01*
X815921Y583543D01*
Y584857D01*
X817602Y585308D01*
X820438Y586945D01*
X822755Y589262D01*
X824392Y592098D01*
X825240Y595262D01*
Y598538D01*
X824392Y601702D01*
X822755Y604538D01*
X820438Y606855D01*
X817602Y608492D01*
X815921Y608943D01*
Y610257D01*
X817602Y610708D01*
X820438Y612346D01*
X822755Y614662D01*
X824392Y617498D01*
X825240Y620662D01*
Y621030D01*
D02*
G37*
G36*
X1626922Y492640D02*
X1624278D01*
X1621725Y491956D01*
X1619435Y490634D01*
X1617566Y488765D01*
X1616244Y486475D01*
X1615560Y483922D01*
Y481278D01*
X1616244Y478725D01*
X1617566Y476435D01*
X1619435Y474566D01*
X1621725Y473244D01*
X1624278Y472560D01*
X1626922D01*
X1629475Y473244D01*
X1631765Y474566D01*
X1633634Y476435D01*
X1634956Y478725D01*
X1635640Y481278D01*
Y483922D01*
X1634956Y486475D01*
X1633634Y488765D01*
X1631765Y490634D01*
X1629475Y491956D01*
X1626922Y492640D01*
D02*
G37*
G36*
X1195138Y492760D02*
X1192462D01*
X1189878Y492068D01*
X1187562Y490730D01*
X1185670Y488838D01*
X1184332Y486522D01*
X1183640Y483938D01*
Y481262D01*
X1184332Y478678D01*
X1185670Y476362D01*
X1187562Y474470D01*
X1189878Y473132D01*
X1192462Y472440D01*
X1195138D01*
X1197722Y473132D01*
X1200038Y474470D01*
X1201930Y476362D01*
X1203268Y478678D01*
X1203960Y481262D01*
Y483938D01*
X1203268Y486522D01*
X1201930Y488838D01*
X1200038Y490730D01*
X1197722Y492068D01*
X1195138Y492760D01*
D02*
G37*
G36*
X684680Y470530D02*
X684530D01*
Y461010D01*
X694050D01*
Y461161D01*
X693315Y463905D01*
X691894Y466365D01*
X689885Y468374D01*
X687425Y469795D01*
X684680Y470530D01*
D02*
G37*
G36*
X681990D02*
X681840D01*
X679095Y469795D01*
X676635Y468374D01*
X674626Y466365D01*
X673205Y463905D01*
X672470Y461161D01*
Y461010D01*
X681990D01*
Y470530D01*
D02*
G37*
G36*
X694050Y458470D02*
X684530D01*
Y448950D01*
X684680D01*
X687425Y449685D01*
X689885Y451106D01*
X691894Y453115D01*
X693315Y455575D01*
X694050Y458320D01*
Y458470D01*
D02*
G37*
G36*
X681990D02*
X672470D01*
Y458320D01*
X673205Y455575D01*
X674626Y453115D01*
X676635Y451106D01*
X679095Y449685D01*
X681840Y448950D01*
X681990D01*
Y458470D01*
D02*
G37*
G36*
X1635640Y467240D02*
X1615560D01*
Y447160D01*
X1635640D01*
Y467240D01*
D02*
G37*
G36*
X1195138Y467360D02*
X1192462D01*
X1189878Y466668D01*
X1187562Y465330D01*
X1185670Y463438D01*
X1184332Y461122D01*
X1183640Y458538D01*
Y455862D01*
X1184332Y453278D01*
X1185670Y450962D01*
X1187562Y449070D01*
X1189878Y447732D01*
X1192462Y447040D01*
X1195138D01*
X1197722Y447732D01*
X1200038Y449070D01*
X1201930Y450962D01*
X1203268Y453278D01*
X1203960Y455862D01*
Y458538D01*
X1203268Y461122D01*
X1201930Y463438D01*
X1200038Y465330D01*
X1197722Y466668D01*
X1195138Y467360D01*
D02*
G37*
G36*
Y441960D02*
X1192462D01*
X1189878Y441268D01*
X1187562Y439930D01*
X1185670Y438038D01*
X1184332Y435722D01*
X1183640Y433138D01*
Y430462D01*
X1184332Y427878D01*
X1185670Y425562D01*
X1187562Y423670D01*
X1189878Y422332D01*
X1192462Y421640D01*
X1195138D01*
X1197722Y422332D01*
X1200038Y423670D01*
X1201930Y425562D01*
X1203268Y427878D01*
X1203960Y430462D01*
Y433138D01*
X1203268Y435722D01*
X1201930Y438038D01*
X1200038Y439930D01*
X1197722Y441268D01*
X1195138Y441960D01*
D02*
G37*
G36*
X1042738D02*
X1040062D01*
X1037478Y441268D01*
X1035162Y439930D01*
X1033270Y438038D01*
X1031932Y435722D01*
X1031240Y433138D01*
Y430462D01*
X1031932Y427878D01*
X1033270Y425562D01*
X1035162Y423670D01*
X1037478Y422332D01*
X1040062Y421640D01*
X1042738D01*
X1045322Y422332D01*
X1047638Y423670D01*
X1049530Y425562D01*
X1050868Y427878D01*
X1051560Y430462D01*
Y433138D01*
X1050868Y435722D01*
X1049530Y438038D01*
X1047638Y439930D01*
X1045322Y441268D01*
X1042738Y441960D01*
D02*
G37*
G36*
X694050Y419730D02*
X672470D01*
Y398150D01*
X694050D01*
Y419730D01*
D02*
G37*
G36*
X1195138Y416560D02*
X1192462D01*
X1189878Y415868D01*
X1187562Y414530D01*
X1185670Y412638D01*
X1184332Y410322D01*
X1183640Y407738D01*
Y405062D01*
X1184332Y402478D01*
X1185670Y400162D01*
X1187562Y398270D01*
X1189878Y396932D01*
X1192462Y396240D01*
X1195138D01*
X1197722Y396932D01*
X1200038Y398270D01*
X1201930Y400162D01*
X1203268Y402478D01*
X1203960Y405062D01*
Y407738D01*
X1203268Y410322D01*
X1201930Y412638D01*
X1200038Y414530D01*
X1197722Y415868D01*
X1195138Y416560D01*
D02*
G37*
G36*
X1042738D02*
X1040062D01*
X1037478Y415868D01*
X1035162Y414530D01*
X1033270Y412638D01*
X1031932Y410322D01*
X1031240Y407738D01*
Y405062D01*
X1031932Y402478D01*
X1033270Y400162D01*
X1035162Y398270D01*
X1037478Y396932D01*
X1040062Y396240D01*
X1042738D01*
X1045322Y396932D01*
X1047638Y398270D01*
X1049530Y400162D01*
X1050868Y402478D01*
X1051560Y405062D01*
Y407738D01*
X1050868Y410322D01*
X1049530Y412638D01*
X1047638Y414530D01*
X1045322Y415868D01*
X1042738Y416560D01*
D02*
G37*
G36*
X915820Y417190D02*
X912980D01*
X910235Y416455D01*
X907775Y415034D01*
X905766Y413025D01*
X904345Y410565D01*
X903610Y407821D01*
Y404980D01*
X904345Y402235D01*
X905766Y399775D01*
X907775Y397766D01*
X910235Y396345D01*
X912980Y395610D01*
X915820D01*
X918565Y396345D01*
X921025Y397766D01*
X923034Y399775D01*
X924455Y402235D01*
X925190Y404980D01*
Y407821D01*
X924455Y410565D01*
X923034Y413025D01*
X921025Y415034D01*
X918565Y416455D01*
X915820Y417190D01*
D02*
G37*
G36*
X874390D02*
X852810D01*
Y395610D01*
X874390D01*
Y417190D01*
D02*
G37*
G36*
X1203960Y391160D02*
X1183640D01*
Y370840D01*
X1203960D01*
Y391160D01*
D02*
G37*
G36*
X1042738D02*
X1040062D01*
X1037478Y390468D01*
X1035162Y389130D01*
X1033270Y387238D01*
X1031932Y384922D01*
X1031240Y382338D01*
Y379662D01*
X1031932Y377078D01*
X1033270Y374762D01*
X1035162Y372870D01*
X1037478Y371532D01*
X1040062Y370840D01*
X1042738D01*
X1045322Y371532D01*
X1047638Y372870D01*
X1049530Y374762D01*
X1050868Y377078D01*
X1051560Y379662D01*
Y382338D01*
X1050868Y384922D01*
X1049530Y387238D01*
X1047638Y389130D01*
X1045322Y390468D01*
X1042738Y391160D01*
D02*
G37*
G36*
X1195221Y366395D02*
X1192379D01*
X1189633Y365659D01*
X1187172Y364238D01*
X1185162Y362228D01*
X1183741Y359767D01*
X1183005Y357021D01*
Y354179D01*
X1183741Y351433D01*
X1185162Y348972D01*
X1187172Y346962D01*
X1189633Y345541D01*
X1192379Y344805D01*
X1195221D01*
X1197967Y345541D01*
X1200428Y346962D01*
X1202438Y348972D01*
X1203859Y351433D01*
X1204595Y354179D01*
Y357021D01*
X1203859Y359767D01*
X1202438Y362228D01*
X1200428Y364238D01*
X1197967Y365659D01*
X1195221Y366395D01*
D02*
G37*
G36*
X1042821D02*
X1039979D01*
X1037233Y365659D01*
X1034772Y364238D01*
X1032762Y362228D01*
X1031341Y359767D01*
X1030605Y357021D01*
Y354179D01*
X1031341Y351433D01*
X1032762Y348972D01*
X1034772Y346962D01*
X1037233Y345541D01*
X1039979Y344805D01*
X1042821D01*
X1045567Y345541D01*
X1048028Y346962D01*
X1050038Y348972D01*
X1051459Y351433D01*
X1052195Y354179D01*
Y357021D01*
X1051459Y359767D01*
X1050038Y362228D01*
X1048028Y364238D01*
X1045567Y365659D01*
X1042821Y366395D01*
D02*
G37*
%LPD*%
D23*
X749300Y673100D02*
X812800D01*
X685800Y609600D02*
X749300Y673100D01*
D24*
X1040746Y456546D02*
X1041400Y457200D01*
X1029354Y456546D02*
X1040746D01*
X965200Y520700D02*
X1029354Y456546D01*
X1032852Y509944D02*
X1039456D01*
X1041400Y508000D01*
X968017Y568684D02*
X974112D01*
X965200Y571500D02*
X968017Y568684D01*
X974112D02*
X1032852Y509944D01*
X1039462Y611538D02*
X1041400Y609600D01*
X1018897Y615188D02*
X1022547Y611538D01*
X1039462D01*
X1018897Y615188D02*
X1018897D01*
X970401Y663684D02*
X1018897Y615188D01*
X970401Y638284D02*
X1027279Y581406D01*
X1039456Y484544D02*
X1041400Y482600D01*
X965200Y643717D02*
X970401Y638516D01*
X974367Y543284D02*
X1033106Y484544D01*
X1038651Y558800D02*
X1041400D01*
X965200Y546100D02*
X968017Y543284D01*
X1027279Y556006D02*
X1035857D01*
X970401Y612884D02*
Y613116D01*
X965200Y618317D02*
Y622300D01*
X970401Y663684D02*
Y663916D01*
X965200Y669117D02*
Y673100D01*
X1035857Y581406D02*
X1038651Y584200D01*
X1027279Y581406D02*
X1035857D01*
X1038651Y584200D02*
X1041400D01*
X965200Y669117D02*
X970401Y663916D01*
X965200Y618317D02*
X970401Y613116D01*
X1033106Y484544D02*
X1039456D01*
X968017Y543284D02*
X974367D01*
X1035857Y556006D02*
X1038651Y558800D01*
X965200Y643717D02*
Y647700D01*
X970401Y612884D02*
X1027279Y556006D01*
X970401Y638284D02*
Y638516D01*
X1203706Y701294D02*
X1602486D01*
X1625600Y678180D01*
X1181100Y723900D02*
X1203706Y701294D01*
X1612392Y716788D02*
X1625600Y703580D01*
X1257300Y736600D02*
X1277112Y716788D01*
X1612392D01*
X1017270Y775970D02*
X1055370D01*
X993140Y751840D02*
X1017270Y775970D01*
X1079500Y751840D02*
X1178560D01*
X1055370Y775970D02*
X1079500Y751840D01*
X916940D02*
X993140D01*
X1178560D02*
X1193800Y736600D01*
X838200Y673100D02*
X916940Y751840D01*
X838200Y673100D02*
Y703580D01*
X812800Y647700D02*
X838200Y673100D01*
X711200Y736600D02*
X805180D01*
X838200Y703580D01*
X812800Y622300D02*
X914400Y723900D01*
X1181100D01*
X1193800Y736600D02*
X1257300D01*
D25*
X1625600Y678180D02*
D03*
Y457200D02*
D03*
D26*
Y703580D02*
D03*
Y635000D02*
D03*
Y609600D02*
D03*
Y584200D02*
D03*
Y558800D02*
D03*
Y533400D02*
D03*
Y508000D02*
D03*
Y482600D02*
D03*
D27*
X1193800Y381000D02*
D03*
D28*
Y406400D02*
D03*
Y431800D02*
D03*
Y457200D02*
D03*
Y482600D02*
D03*
Y508000D02*
D03*
Y533400D02*
D03*
Y558800D02*
D03*
Y584200D02*
D03*
Y609600D02*
D03*
Y635000D02*
D03*
Y660400D02*
D03*
Y685800D02*
D03*
Y711200D02*
D03*
Y736600D02*
D03*
X1041400D02*
D03*
Y711200D02*
D03*
Y685800D02*
D03*
Y660400D02*
D03*
Y635000D02*
D03*
Y609600D02*
D03*
Y584200D02*
D03*
Y558800D02*
D03*
Y533400D02*
D03*
Y508000D02*
D03*
Y482600D02*
D03*
Y457200D02*
D03*
Y431800D02*
D03*
Y406400D02*
D03*
Y381000D02*
D03*
D29*
X1193800Y355600D02*
D03*
X1041400D02*
D03*
Y762000D02*
D03*
X1193800D02*
D03*
D30*
X965200Y495300D02*
D03*
Y520700D02*
D03*
Y546100D02*
D03*
Y571500D02*
D03*
Y596900D02*
D03*
Y622300D02*
D03*
Y647700D02*
D03*
Y673100D02*
D03*
X812800D02*
D03*
Y647700D02*
D03*
Y622300D02*
D03*
Y596900D02*
D03*
Y571500D02*
D03*
Y546100D02*
D03*
Y520700D02*
D03*
Y495300D02*
D03*
D31*
X863600Y787400D02*
D03*
Y406400D02*
D03*
D32*
X914400Y787400D02*
D03*
Y406400D02*
D03*
X685800Y609600D02*
D03*
X683260Y459740D02*
D03*
D33*
X711200Y736600D02*
D03*
X685800D02*
D03*
X660400D02*
D03*
D34*
X685800Y558800D02*
D03*
X683260Y408940D02*
D03*
M02*
