M48
;Layer_Color=9474304
;FILE_FORMAT=4:4
METRIC,LZ
;TYPE=PLATED
T01F00S00C0.9000
T02F00S00C1.0000
T03F00S00C1.0160
T04F00S00C1.1000
T05F00S00C1.3200
;TYPE=NON_PLATED
T06F00S00C1.6510
%
T01
X016256Y004572
Y004826
Y00508
Y005334
Y005588
Y005842
Y006096
Y00635
Y0067818
Y0070358
T02
X006604Y007366
X006858
X007112
T03
X010414Y00381
X011938
Y004064
Y004318
Y004572
Y004826
Y00508
Y005334
Y005588
Y005842
Y006096
Y00635
Y006604
Y006858
Y007112
Y007366
X010414
Y007112
Y006858
Y006604
Y00635
Y006096
Y005842
Y005588
Y005334
Y00508
Y004826
Y004572
Y004318
Y004064
T04
X008636Y004064
X009144
Y007874
X008636
X006858Y006096
Y005588
X0068326Y0045974
Y0040894
T05
X008128Y004953
Y005207
Y005461
Y005715
Y005969
Y006223
Y006477
Y006731
X009652
Y006477
Y006223
Y005969
Y005715
Y005461
Y005207
Y004953
T06
X010414Y003556
X011938
Y00762
X010414
M30
